<?xml version="1.0" encoding="UTF-8" standalone="no" ?>
<!DOCTYPE svg PUBLIC "-//W3C//DTD SVG 1.1//EN" "http://www.w3.org/Graphics/SVG/1.1/DTD/svg11.dtd">
<svg xmlns="http://www.w3.org/2000/svg" xmlns:xlink="http://www.w3.org/1999/xlink" version="1.1" width="500" height="500" viewBox="0 0 500 500" xml:space="preserve">
<desc>Created with Fabric.js 5.3.0</desc>
<defs>
</defs>
<g transform="matrix(0.5594342601 0 0 0.4799796327 245.5373786622 263.379955545)" id="qfqAXThTcG_udlHDL7Hr0"  >
<path style="stroke: rgb(142,105,208); stroke-width: 0; stroke-dasharray: none; stroke-linecap: butt; stroke-dashoffset: 0; stroke-linejoin: miter; stroke-miterlimit: 4; fill: rgb(229,229,229); fill-rule: nonzero; opacity: 1;" vector-effect="non-scaling-stroke"  transform=" translate(0, -0.000005)" d="M 0 -112.75392 C 74.21849 -112.75392 134.45378 -95.91834 134.45378 -21.699849999999998 C 134.45378 52.518640000000005 74.21849 112.75393 0 112.75393 C -74.21849 112.75393 -134.45378 52.51864 -134.45378 -21.699849999999998 C -134.45378 -95.91834 -74.21849 -112.75392 0 -112.75392 z" stroke-linecap="round" />
</g>
<g transform="matrix(0.5594342601 0 0 0.4799796327 245.537379216 278.9873829826)" id="YN4ruuwYMbgTbWpg6iast"  >
<path style="stroke: rgb(142,105,208); stroke-width: 0; stroke-dasharray: none; stroke-linecap: butt; stroke-dashoffset: 0; stroke-linejoin: miter; stroke-miterlimit: 4; fill: rgb(255,255,255); fill-rule: nonzero; opacity: 1;" vector-effect="non-scaling-stroke"  transform=" translate(0, 0)" d="M -130.74619 -80.23707 C -130.74619 -80.23707 -117.46355000000001 -34.723620000000004 0 -32.516850000000005 C 117.46355 -30.310080000000006 130.77584 -80.23707 130.77584 -80.23707 C 130.77584 -80.23707 134.45378 -67.61195000000001 134.45378 -54.216710000000006 C 134.45378 20.001779999999997 74.21849 80.23706999999999 0 80.23706999999999 C -74.21849 80.23706999999999 -134.45378 20.00177999999999 -134.45378 -54.216710000000006 C -134.45378 -71.86164000000001 -130.74618999999998 -80.23707 -130.74618999999998 -80.23707 z" stroke-linecap="round" />
</g>
<g transform="matrix(0.5876410272 0 0 0.5041802845 328.5747093671 271.0155555246)" id="mbJrfCpiW8LKe_uwCc_xn"  >
<path style="stroke: rgb(249,108,172); stroke-width: 0; stroke-dasharray: none; stroke-linecap: butt; stroke-dashoffset: 0; stroke-linejoin: miter; stroke-miterlimit: 4; fill: rgb(255,255,255); fill-rule: nonzero; opacity: 1;" vector-effect="non-scaling-stroke"  transform=" translate(0.0000061107, 0)" d="M -18.20818 -60.57423 C -18.20818 -60.57423 56.896860000000004 -43.930710000000005 57.422070000000005 -6.115580000000001 C 57.947280000000006 31.699550000000002 -57.423869999999994 60.57422999999999 -57.423869999999994 60.57422999999999 L -39.06532999999999 29.881669999999993 C -39.06532999999999 29.881669999999993 34.42006000000001 27.987619999999993 33.100780000000015 -6.1155800000000085 C 31.781500000000015 -40.21878000000001 -18.208179999999984 -35.80285000000001 -18.208179999999984 -35.80285000000001 z" stroke-linecap="round" />
</g>
<g transform="matrix(0.7871155031 0 0 0.2361634282 245.5373786622 233.5150400392)" id="A5KEmMR4FK4XADGv6xWGX"  >
<path style="stroke: rgb(52,162,142); stroke-width: 0; stroke-dasharray: none; stroke-linecap: butt; stroke-dashoffset: 0; stroke-linejoin: miter; stroke-miterlimit: 4; fill: rgb(102,59,20); fill-rule: nonzero; opacity: 1;" vector-effect="non-scaling-stroke"  transform=" translate(0, 0)" d="M 0 -76.33053 C 42.13445 -76.33053 76.33053 -42.134449999999994 76.33053 0 C 76.33053 42.13445 42.134449999999994 76.33053 0 76.33053 C -42.13445 76.33053 -76.33053 42.134449999999994 -76.33053 0 C -76.33053 -42.13445 -42.134449999999994 -76.33053 0 -76.33053 z" stroke-linecap="round" />
</g>
<g transform="matrix(0.7871155031 0 0 0.2361634282 245.5373786622 224.4255994065)" id="GUGeDaiZuEs_cD_qZm-yS"  >
<path style="stroke: rgb(52,162,142); stroke-width: 0; stroke-dasharray: none; stroke-linecap: butt; stroke-dashoffset: 0; stroke-linejoin: miter; stroke-miterlimit: 4; fill: rgb(65,38,13); fill-rule: nonzero; opacity: 1;" vector-effect="non-scaling-stroke"  transform=" translate(0, 0.0000030932)" d="M 0 -37.84261 C 71.93473 -39.33762 76.33053 37.864039999999996 76.33053 37.864039999999996 C 76.33053 37.864039999999996 42.134449999999994 -7.772620000000003 0 -7.772620000000003 C -42.13445 -7.772620000000003 -76.33053 37.864039999999996 -76.33053 37.864039999999996 C -76.33053 37.864039999999996 -71.93473 -36.34760000000001 0 -37.84261 z" stroke-linecap="round" />
</g>
<g transform="matrix(0.5876410272 0 0 0.5041802845 228.9997896495 177.8595312398)" id="xh0b28v88PRqzDE8ZXHW_"  >
<path style="stroke: rgb(249,83,100); stroke-width: 0; stroke-dasharray: none; stroke-linecap: butt; stroke-dashoffset: 0; stroke-linejoin: miter; stroke-miterlimit: 4; fill: rgb(199,199,199); fill-rule: nonzero; opacity: 1;" vector-effect="non-scaling-stroke"  transform=" translate(-0.0000016518, -0.000005)" d="M -18.76226 -22.89786 C -0.7300500000000021 -61.93848 23.733909999999998 -74.63407000000001 23.733909999999998 -74.63407000000001 C 23.733909999999998 -74.63407000000001 14.870169999999998 -15.501970000000007 13.042369999999998 -4.531660000000002 C 10.902259999999998 8.313149999999998 22.41057 33.33799 19.96147 48.263929999999995 C 16.87059 67.10118 0.025459999999998928 74.63408 0.025459999999998928 74.63408 C 0.025459999999998928 74.63408 -36.79448000000001 16.142759999999996 -18.76226 -22.89786000000001 z" stroke-linecap="round" />
</g>
<g transform="matrix(0.5876410272 0 0 0.4683112684 259.7426179016 170.4940514405)" id="W9GXU0w-29jwCClHjp9t6"  >
<path style="stroke: rgb(249,83,100); stroke-width: 0; stroke-dasharray: none; stroke-linecap: butt; stroke-dashoffset: 0; stroke-linejoin: miter; stroke-miterlimit: 4; fill: rgb(199,199,199); fill-rule: nonzero; opacity: 1;" vector-effect="non-scaling-stroke"  transform=" translate(0.0000059032, 0)" d="M -19.1195 -1.26073 C -3.1881299999999992 -39.60107 -24.17333 -96.07821 -24.17333 -96.07821 C -24.17333 -96.07821 6.117930000000001 -63.788959999999996 19.651229999999998 -31.26518 C 27.05952 -13.461290000000002 9.262379999999999 22.42338 16.632369999999998 36.6679 C 37.4657 76.93401 8.523459999999998 96.07821000000001 8.523459999999998 96.07821000000001 C 8.523459999999998 96.07821000000001 -35.05088 37.07961000000001 -19.11951 -1.260729999999981 z" stroke-linecap="round" />
</g>
<g transform="matrix(0.7500000003 0 0 0.7258451551 234.0182361256 188.6253388251)" id="8vsSP2DMPbIGbu1II284T"  >
<path style="stroke: rgb(0,0,0); stroke-width: 1; stroke-dasharray: none; stroke-linecap: round; stroke-dashoffset: 0; stroke-linejoin: round; stroke-miterlimit: 10; fill: none; fill-rule: nonzero; opacity: 1;" vector-effect="non-scaling-stroke"  transform=" translate(-242.2969187675, -144.1737437681)" d="M 242.29591876750703 144.17374376806427 L 242.29791876750704 144.17374376806427" stroke-linecap="round" />
</g>
</svg>